<svg width="21" height="20" viewBox="0 0 21 20" fill="none" xmlns="http://www.w3.org/2000/svg">
                  <path d="M5.17746 4.053L13.1505 1.8767L12.7283 1.02325C12.452 0.468501 11.7782 0.239416 11.2235 0.515666L4.08594 4.053H5.17746Z" fill="currentColor"></path>
                  <path d="M15.6243 1.9375C15.5255 1.9375 15.4267 1.95098 15.3279 1.97793L13.4548 2.49L7.73438 4.05092H14.2274H17.0572L16.7069 2.76625C16.5721 2.26541 16.1184 1.9375 15.6243 1.9375Z" fill="currentColor"></path>
                  <path d="M18.2249 4.83594H17.9688H17.6207H17.2726H14.6157H4.85261H3.57243H2.49439H2.2945H1.62521C1.27035 4.83594 0.953678 4.99989 0.747052 5.25817C0.652723 5.37721 0.580853 5.51421 0.540427 5.66469C0.515722 5.75901 0.5 5.85784 0.5 5.9589V6.09366V7.37384V18.471C0.5 19.0909 1.00309 19.5939 1.62296 19.5939H18.2226C18.8425 19.5939 19.3456 19.0909 19.3456 18.471V15.3379H12.6819C11.6286 15.3379 10.7729 14.4822 10.7729 13.4289V12.4002V12.0521V11.704V10.9314C10.7729 10.4148 10.9795 9.94545 11.3141 9.60182C11.6106 9.29635 12.0081 9.08973 12.4528 9.03807C12.527 9.02911 12.6033 9.0246 12.6797 9.0246H18.4113H18.7594H19.1075H19.3456V5.9589C19.3478 5.33903 18.8448 4.83594 18.2249 4.83594Z" fill="currentColor"></path>
                  <path d="M20.1375 10.0989C20.0252 9.99557 19.8927 9.91696 19.7444 9.86531C19.6299 9.82715 19.5086 9.80469 19.3806 9.80469H19.3514H19.3289H18.9808H17.7253H12.6855C12.0656 9.80469 11.5625 10.3078 11.5625 10.9277V11.4869V11.835V12.1831V13.4273C11.5625 14.0472 12.0656 14.5503 12.6855 14.5503H19.3514H19.3806C19.5086 14.5503 19.6299 14.5279 19.7444 14.4897C19.8927 14.4403 20.0252 14.3594 20.1375 14.2561C20.3621 14.0517 20.5035 13.7553 20.5035 13.4274V10.9277C20.5035 10.5997 20.3621 10.3032 20.1375 10.0989ZM15.0302 12.401C15.0302 12.7109 14.7787 12.9624 14.4687 12.9624H14.0959C13.786 12.9624 13.5344 12.7109 13.5344 12.401V12.0281C13.5344 11.8485 13.6175 11.689 13.75 11.5879C13.8466 11.5138 13.9657 11.4667 14.0959 11.4667H14.1902H14.4687C14.7787 11.4667 15.0302 11.7182 15.0302 12.0281V12.401Z" fill="currentColor"></path>
                </svg>